# xmcd
#
# Track frame offsets:
#	150
#	10883
#	23824
#	37386
#	48639
#	61852
#	78633
#	100394
#	107217
#	118872
#	132292
#	142555
#	157780
#	171384
#	185910
#	195772
#	215278
#	225526
#	234672
#	250048
#
# Disc length: 3446 seconds
#
# Revision: 1
# Processed by: cddbd v1.5.2PL0 Copyright (c) Steve Scherf et al.
# Submitted via: EasyCDDAExtractor 16.0.3.1
#
DISCID=100d7414
DTITLE=Various Country - Country Gold Cd 4
DYEAR=1900
DGENRE=Country
TTITLE0=Jim Reeves - If Heartaches Are The Fashion
TTITLE1=Glen Yarborough - Waltzing Matilda
TTITLE2=Ferlin Husky - Baby
TTITLE3=Barbara Fairchild - Colour My World
TTITLE4=Kenny Rogers - Ruby Don't Take Your Love To Town
TTITLE5=Johnny Lee - Daddy 2
TTITLE6=Dottie West - Crazy,Fall To Pieces,Sweet Dreams,Crazy
TTITLE7=Waylon Jennings - It's So Easy
TTITLE8=Carl Perkins - Lucille
TTITLE9=Johnny Paycheck - Keeping Up With The Jones
TTITLE10=Patsy Cline - I Love You Honey
TTITLE11=Eddie Raven - You're Too Much For Me
TTITLE12=Carl Perkins - Every Road
TTITLE13=George Jones - It's Funny What A Fool Will
TTITLE14=Johnny Cash - I Could Never Be Ashamed Of You
TTITLE15=Kenny Rogers - Lay It Down
TTITLE16=Connie Smith - Because I Love You That's Why
TTITLE17=Bill Monroe - Prison Song
TTITLE18=Nitty Gritty Dirt Band - Dance Little Jean
TTITLE19=Jim Reeves - If You Were Mine
EXTD=
EXTT0=
EXTT1=
EXTT2=
EXTT3=
EXTT4=
EXTT5=
EXTT6=
EXTT7=
EXTT8=
EXTT9=
EXTT10=
EXTT11=
EXTT12=
EXTT13=
EXTT14=
EXTT15=
EXTT16=
EXTT17=
EXTT18=
EXTT19=
PLAYORDER=
